<svg version="1.1" id="Layer_1" xmlns="http://www.w3.org/2000/svg" xmlns:xlink="http://www.w3.org/1999/xlink" x="0px" y="0px" viewBox="0 0 512 512" enable-background="new 0 0 512 512" xml:space="preserve">
<g>
<g>
<polygon fill="#F2F2F2" points="7.1,13.3 7.1,466.8 330.2,466.8 330.2,73.9 270.7,13.3 		" id="id_120"></polygon>
</g>
<g>
<rect x="32.1" y="60.9" fill="#333D47" width="265.6" height="28.8" id="id_121"></rect>
</g>
<g>
<polygon fill="#CDCCCA" points="270.4,13.4 270.4,74 329.9,74 		" id="id_122"></polygon>
</g>
<g>
<g>
<rect x="32.1" y="158" fill="#CDCCCA" width="175.4" height="12.5" id="id_123"></rect>
</g>
<g>
<rect x="245.1" y="138" fill="#FFFFFF" width="52.6" height="52.6" id="id_124"></rect>
</g>
</g>
<g>
<g>
<rect x="32.1" y="236.9" fill="#CDCCCA" width="175.4" height="12.5" id="id_125"></rect>
</g>
<g>
<rect x="245.1" y="216.9" fill="#FFFFFF" width="52.6" height="52.6" id="id_126"></rect>
</g>
</g>
<g>
<g>
<g>
<rect x="32.1" y="305.2" fill="#CDCCCA" width="175.4" height="12.5" id="id_127"></rect>
</g>
<g>
<rect x="32.1" y="326.5" fill="#CDCCCA" width="175.4" height="12.5" id="id_128"></rect>
</g>
</g>
<g>
<rect x="245.1" y="295.8" fill="#FFFFFF" width="52.6" height="52.6" id="id_129"></rect>
</g>
</g>
<g>
<g>
<rect x="32.1" y="394.8" fill="#CDCCCA" width="175.4" height="12.5" id="id_130"></rect>
</g>
<g>
<rect x="245.1" y="374.7" fill="#FFFFFF" width="52.6" height="52.6" id="id_131"></rect>
</g>
</g>
<g>
<g>
<polygon fill="#F97858" points="468.6,126.3 295,299.9 287,291.9 460.7,118.3 			" id="id_132"></polygon>
</g>
<g>
<rect x="271" y="219.4" transform="matrix(0.7071 -0.7071 0.7071 0.7071 -43.7805 344.3584)" fill="#F97858" width="245.5" height="11.3" id="id_133"></rect>
</g>
<g>
<rect x="263.1" y="211.4" transform="matrix(0.7071 -0.7071 0.7071 0.7071 -40.4819 336.3734)" fill="#FF916E" width="245.5" height="11.3" id="id_134"></rect>
</g>
<g>
<polygon fill="#FFDB7A" points="311,315.8 287,291.9 261.4,342.4 			" id="id_135"></polygon>
</g>
<g>
<polygon fill="#353F49" points="261.4,342.4 271.5,322.2 281.4,332.1 			" id="id_136"></polygon>
</g>
</g>
<g>
<g>
<polygon fill="#333D47" points="268.6,182.6 248.9,164 253.8,158.9 267.9,172.2 287.4,148.6 292.9,153.1 			" id="id_137"></polygon>
</g>
</g>
<g>
<g>
<polygon fill="#333D47" points="268.6,260.3 248.9,241.7 253.8,236.5 267.9,249.9 287.4,226.2 292.9,230.7 			" id="id_138"></polygon>
</g>
</g>
</g>
</svg>