<?xml version="1.0" encoding="iso-8859-1"?>
<!-- Generator: Adobe Illustrator 19.0.0, SVG Export Plug-In . SVG Version: 6.00 Build 0)  -->
<svg version="1.1" xmlns="http://www.w3.org/2000/svg" xmlns:xlink="http://www.w3.org/1999/xlink" x="0px" y="0px"
	 viewBox="0 0 520 520" style="enable-background:new 0 0 520 520;" xml:space="preserve">
<g id="_x36_6_x2C__Eye_x2C__Open_x2C__Public_x2C__Visible">
	<g>
		<g>
			<circle style="fill:#9BC9FF;" cx="447.5" cy="65" r="35"/>
			<circle style="fill:#1E81CE;" cx="465" cy="397.5" r="7.5"/>
			<circle style="fill:#1E81CE;" cx="460" cy="157.5" r="7.5"/>
			<circle style="fill:#1E81CE;" cx="390" cy="467.5" r="7.5"/>
			<path style="fill:#9BC9FF;" d="M252.5,60c-110.46,0-200,89.54-200,200s89.54,200,200,200s200-89.54,200-200S362.96,60,252.5,60z"
				/>
			<circle style="fill:#1E81CE;" cx="360" cy="42.5" r="7.5"/>
			<circle style="fill:#FFFFFF;" cx="252.5" cy="260" r="140"/>
			<path style="fill:#9BC9FF;" d="M252.5,185c-48.55,0-90.91,30.18-113.601,75c22.69,44.82,65.051,75,113.601,75
				s90.91-30.18,113.6-75C343.41,215.18,301.05,185,252.5,185z"/>
			<path style="fill:#9BC9FF;" d="M252.5,215c24.85,0,45,20.15,45,45c0,24.85-20.15,45-45,45c-24.851,0-45-20.15-45-45
				C207.5,235.15,227.649,215,252.5,215z M272.5,260c0-11.05-8.95-20-20-20c-3.45,0-6.7,0.88-9.53,2.42
				c-0.17,0.08-0.33,0.17-0.49,0.28c-5.97,3.45-9.979,9.9-9.979,17.3c0,11.05,8.95,20,20,20S272.5,271.05,272.5,260z"/>
			<path style="fill:#FFFFFF;" d="M252.5,240c11.05,0,20,8.95,20,20s-8.95,20-20,20s-20-8.95-20-20c0-7.4,4.01-13.85,9.979-17.3
				c-2.88,1.75-4.81,4.93-4.81,8.55c0,5.52,4.47,10,10,10c5.521,0,10-4.48,10-10c0-5.52-4.479-10-10-10c-1.7,0-3.3,0.42-4.7,1.17
				C245.8,240.88,249.05,240,252.5,240z"/>
			<path style="fill:#1E81CE;" d="M247.67,241.25c5.521,0,10,4.48,10,10c0,5.52-4.479,10-10,10c-5.53,0-10-4.48-10-10
				c0-3.62,1.93-6.8,4.81-8.55c0.16-0.11,0.32-0.2,0.49-0.28C244.37,241.67,245.97,241.25,247.67,241.25z"/>
			<circle style="fill:#1E81CE;" cx="140" cy="457.5" r="7.5"/>
			<path style="fill:#9BC9FF;" d="M102.5,40c11.05,0,20,8.95,20,20s-8.95,20-20,20s-20-8.95-20-20S91.45,40,102.5,40z"/>
			<path style="fill:#9BC9FF;" d="M62.5,430c11.05,0,20,8.95,20,20s-8.95,20-20,20s-20-8.95-20-20S51.45,430,62.5,430z"/>
			<circle style="fill:#1E81CE;" cx="40" cy="117.5" r="7.5"/>
			<circle style="fill:#1E81CE;" cx="40" cy="362.5" r="7.5"/>
			<path style="fill:#1E81CE;" d="M252.5,340c-24.431,0-48.392-7.451-69.293-21.547c-20.185-13.612-37.049-33.044-48.769-56.194
				c-0.719-1.42-0.719-3.098,0-4.518c11.72-23.15,28.584-42.582,48.769-56.194C204.108,187.451,228.069,180,252.5,180
				c24.43,0,48.392,7.451,69.293,21.547c20.184,13.612,37.048,33.044,48.767,56.195c0.719,1.419,0.719,3.097,0,4.516
				c-11.72,23.151-28.583,42.583-48.767,56.195C300.892,332.549,276.931,340,252.5,340z M144.528,260
				c22.818,43.243,63.978,70,107.972,70s85.152-26.757,107.972-70c-22.819-43.243-63.978-70-107.972-70S167.348,216.757,144.528,260
				z"/>
			<path style="fill:#1E81CE;" d="M252.5,465c-113.038,0-205-91.963-205-205c0-113.038,91.962-205,205-205
				c113.037,0,205,91.962,205,205C457.5,373.037,365.537,465,252.5,465z M252.5,65c-107.523,0-195,87.477-195,195
				s87.477,195,195,195s195-87.477,195-195S360.023,65,252.5,65z"/>
			<path style="fill:#1E81CE;" d="M252.5,405c-79.953,0-145-65.047-145-145s65.047-145,145-145s145,65.047,145,145
				S332.453,405,252.5,405z M252.5,125c-74.439,0-135,60.561-135,135s60.561,135,135,135s135-60.56,135-135S326.939,125,252.5,125z"
				/>
			<path style="fill:#1E81CE;" d="M62.5,475c-13.785,0-25-11.215-25-25s11.215-25,25-25s25,11.215,25,25S76.285,475,62.5,475z
				 M62.5,435c-8.271,0-15,6.728-15,15s6.729,15,15,15c8.271,0,15-6.728,15-15S70.771,435,62.5,435z"/>
			<path style="fill:#1E81CE;" d="M447.5,105c-22.056,0-40-17.944-40-40s17.944-40,40-40c22.056,0,40,17.944,40,40
				S469.556,105,447.5,105z M447.5,35c-16.542,0-30,13.458-30,30s13.458,30,30,30s30-13.458,30-30S464.042,35,447.5,35z"/>
			<path style="fill:#1E81CE;" d="M102.5,85c-13.785,0-25-11.215-25-25s11.215-25,25-25s25,11.215,25,25S116.285,85,102.5,85z
				 M102.5,45c-8.271,0-15,6.729-15,15s6.729,15,15,15c8.271,0,15-6.729,15-15S110.771,45,102.5,45z"/>
			<path style="fill:#1E81CE;" d="M252.5,310c-27.57,0-50-22.43-50-50s22.43-50,50-50c27.57,0,50,22.43,50,50S280.07,310,252.5,310z
				 M252.5,220c-22.057,0-40,17.944-40,40c0,22.056,17.943,40,40,40c22.056,0,40-17.944,40-40C292.5,237.944,274.556,220,252.5,220z
				"/>
			<path style="fill:#1E81CE;" d="M252.5,285c-13.785,0-25-11.215-25-25c0-8.838,4.722-17.079,12.335-21.546
				c0.274-0.178,0.558-0.339,0.856-0.486c3.612-1.942,7.692-2.968,11.809-2.968c13.785,0,25,11.215,25,25
				C277.5,273.785,266.285,285,252.5,285z M245.202,246.894c-0.072,0.047-0.145,0.092-0.221,0.135
				c-4.615,2.667-7.481,7.637-7.481,12.971c0,8.272,6.729,15,15,15c8.271,0,15-6.728,15-15c0-8.271-6.729-15-15-15
				c-2.493,0-4.962,0.626-7.14,1.811C245.309,246.84,245.256,246.867,245.202,246.894z"/>
		</g>
	</g>
</g>
<g id="Layer_1">
</g>
</svg>
