<?xml version="1.0" encoding="UTF-8" standalone="no"?> <svg xmlns="http://www.w3.org/2000/svg" width="902.082" height="902.083" viewBox="0 0 902.082 902.083">
  <g id="Layer_x0020_1" transform="translate(1.041 1.042)">
    <path id="Path_186" data-name="Path 186" d="M478.959,389.407c7.37,2.683,15.168,8.717,20.1,14.681,12.667,15.318,13.111,34.519,7.227,52.806a14.421,14.421,0,1,1-27.457-8.828c2.621-8.148,3.718-17.779-1.682-25.075a20.969,20.969,0,0,0-8.181-6.537,14.417,14.417,0,0,1,9.993-27.047Z" fill="#4ba198" fill-rule="evenodd"/>
    <path id="Path_187" data-name="Path 187" d="M222.872,609.595h52.447a14.436,14.436,0,1,1,0,28.872H208.437A14.44,14.44,0,0,1,194,624.032V557.148a14.436,14.436,0,0,1,28.872,0v52.447Zm18.444-253.3a146.839,146.839,0,0,1,13.853-17.66,211.433,211.433,0,0,1,39.848-34.654,195.038,195.038,0,0,1,66.471-28.6c30.741-6.8,62.029-5.759,92.658,1.143a14.422,14.422,0,0,1-6.338,28.139c-48.191-10.864-95.666-4.3-136.937,23.359-15.921,10.67-34.748,27.646-45.359,43.968a14.42,14.42,0,0,1-24.2-15.694Zm435.811-65.894H624.68a14.437,14.437,0,0,1,0-28.873h66.882A14.441,14.441,0,0,1,706,275.969v66.883a14.436,14.436,0,0,1-28.872,0V290.405Zm6.36,248.439a141.815,141.815,0,0,1-13.9,17.318,203.566,203.566,0,0,1-39.938,33.609c-48.574,31.176-103.688,37.2-159.279,23.2a14.429,14.429,0,0,1,7.032-27.989c47.8,12.039,95,7.294,136.817-19.546,15.831-10.159,34.637-26.574,45.2-42.508a14.425,14.425,0,0,1,24.066,15.911Z" fill="#4ba198" fill-rule="evenodd"/>
    <path id="Path_188" data-name="Path 188" d="M212.407,442.957Zm.23,6.894c8.491,8.856,253.632,260.679,478.858-.428l.015,0a4.813,4.813,0,0,0-.314-6.618c-228.814-264.784-478.065-.6-478.8.138a4.812,4.812,0,0,0,.131,6.8l.107.1ZM394.6,389.02a80.984,80.984,0,1,1-23.72,57.265A80.739,80.739,0,0,1,394.6,389.02Z" fill="#4ba198" fill-rule="evenodd"/>
    <path id="Path_189" data-name="Path 189" d="M174.2,0H725.8C821.61,0,900,78.39,900,174.2V725.8C900,821.61,821.61,900,725.8,900H174.2C78.39,900,0,821.61,0,725.8V174.2C0,78.39,78.39,0,174.2,0Zm47.278,77.143H678.521c79.385,0,144.337,64.951,144.337,144.337V678.521c0,79.385-64.951,144.337-144.337,144.337H221.479c-79.385,0-144.337-64.951-144.337-144.337V221.479c0-79.385,64.951-144.337,144.337-144.337Z" fill="#4ba198" stroke="#f0f0f0" stroke-width="2.083" fill-rule="evenodd"/>
  </g>
</svg>
