<svg xmlns:dc="http://purl.org/dc/elements/1.1/" xmlns:cc="http://creativecommons.org/ns#" xmlns:rdf="http://www.w3.org/1999/02/22-rdf-syntax-ns#" xmlns:svg="http://www.w3.org/2000/svg" xmlns="http://www.w3.org/2000/svg" xmlns:sodipodi="http://sodipodi.sourceforge.net/DTD/sodipodi-0.dtd" xmlns:inkscape="http://www.inkscape.org/namespaces/inkscape" width="24" height="24" viewBox="0 0 6.3499999 6.3500002" version="1.1" id="svg8" inkscape:version="0.92.4 (5da689c313, 2019-01-14)" sodipodi:docname="9. Identification Card.svg">
<defs id="defs2">
<pattern y="0" x="0" height="6" width="6" patternUnits="userSpaceOnUse" id="EMFhbasepattern"></pattern>
<pattern y="0" x="0" height="6" width="6" patternUnits="userSpaceOnUse" id="EMFhbasepattern-3"></pattern>
<pattern y="0" x="0" height="6" width="6" patternUnits="userSpaceOnUse" id="EMFhbasepattern-2"></pattern>
<pattern y="0" x="0" height="6" width="6" patternUnits="userSpaceOnUse" id="EMFhbasepattern-1"></pattern>
<pattern y="0" x="0" height="6" width="6" patternUnits="userSpaceOnUse" id="EMFhbasepattern-5"></pattern>
</defs>
<sodipodi:namedview id="base" pagecolor="#ffffff" bordercolor="#666666" borderopacity="1.0" inkscape:pageopacity="0.0" inkscape:pageshadow="2" inkscape:zoom="11.313708" inkscape:cx="-16.975929" inkscape:cy="10.220083" inkscape:document-units="px" inkscape:current-layer="layer1" showgrid="false" units="px" inkscape:window-width="1280" inkscape:window-height="658" inkscape:window-x="-8" inkscape:window-y="-8" inkscape:window-maximized="1" showguides="true" guidecolor="#af0000" guideopacity="0.49803922" guidehicolor="#ff4b4b" guidehiopacity="0.49803922" inkscape:snap-global="false">
<inkscape:grid type="xygrid" id="grid815" empspacing="1" originx="0" originy="0" spacingx="0" spacingy="0" snapvisiblegridlinesonly="true" visible="true" enabled="true" dotted="false"></inkscape:grid>
</sodipodi:namedview>
<metadata id="metadata5">
<rdf:rdf>
<cc:work rdf:about="">
<dc:format>image/svg+xml</dc:format>
<dc:type rdf:resource="http://purl.org/dc/dcmitype/StillImage"></dc:type>
<dc:title></dc:title>
</cc:work>
</rdf:rdf>
</metadata>
<g inkscape:label="Guides" inkscape:groupmode="layer" id="layer1" transform="translate(0,-290.64999)">
<path style="opacity: 1; fill: rgb(48, 66, 97); fill-opacity: 1; fill-rule: nonzero; stroke: none; stroke-width: 1; stroke-linecap: round; stroke-linejoin: miter; stroke-miterlimit: 4; stroke-dasharray: none; stroke-dashoffset: 0; stroke-opacity: 1; paint-order: normal;" d="M 9.9140625 5.1679688 C 9.3687111 5.1679688 8.9179688 5.6206676 8.9179688 6.1660156 L 8.9179688 7.4492188 L 8.9335938 7.4492188 C 9.6406752 7.4492188 9.484077 7.449135 9.9140625 7.4492188 L 9.9140625 6.1660156 L 14.083984 6.1660156 L 14.083984 7.4511719 C 14.433667 7.4512567 14.480344 7.4511719 15.072266 7.4511719 L 15.087891 7.4511719 L 15.087891 6.1660156 C 15.087891 5.6206676 14.629336 5.1679688 14.083984 5.1679688 L 9.9140625 5.1679688 z M 15.087891 7.4511719 L 15.087891 7.6269531 C 15.087891 8.1723012 14.629336 8.6230469 14.083984 8.6230469 L 9.9140625 8.6230469 C 9.3687111 8.6230469 8.9179688 8.1723012 8.9179688 7.6269531 L 8.9179688 7.4492188 L 4.0039062 7.4492188 L 4.0039062 17.583984 L 19.996094 17.583984 L 19.996094 7.4511719 L 15.087891 7.4511719 z M 6.3183594 9.0800781 L 10.570312 9.0800781 C 11.115656 9.0800781 11.574219 9.5386371 11.574219 10.083984 L 11.574219 14.949219 C 11.574219 15.494567 11.115612 15.953125 10.570312 15.953125 L 6.3183594 15.953125 C 5.7730174 15.953125 5.3144531 15.494567 5.3144531 14.949219 L 5.3144531 10.083984 C 5.3144531 9.5385994 5.7730627 9.0800781 6.3183594 9.0800781 z M 6.3183594 10.083984 L 6.3183594 14.181641 C 6.3503754 14.071656 6.3856104 13.962871 6.4296875 13.857422 C 6.5509083 13.567872 6.8775706 13.42423 7.1308594 13.214844 C 7.0668384 13.112797 6.9155456 13.054102 6.8945312 12.955078 C 6.8317912 12.659103 6.8653314 12.410748 6.8652344 12.195312 C 6.8653122 11.324812 7.5754168 10.60712 8.4453125 10.607422 L 8.4453125 10.609375 C 9.3149489 10.609488 10.025313 11.325076 10.025391 12.195312 C 10.025202 12.426508 10.045831 12.682579 9.9648438 12.978516 C 9.9383947 13.074896 9.7929112 13.125081 9.7285156 13.220703 C 9.9774599 13.425667 10.302958 13.55871 10.429688 13.841797 C 10.484898 13.965274 10.532283 14.092263 10.570312 14.222656 L 10.570312 10.083984 L 6.3183594 10.083984 z M 18.318359 10.246094 C 18.335279 10.245234 18.352231 10.245234 18.369141 10.246094 C 19.036102 10.282294 18.981418 11.282289 18.314453 11.246094 L 13.154297 11.246094 C 12.513142 11.253694 12.464902 10.305597 13.103516 10.248047 C 13.120436 10.247187 13.137377 10.247187 13.154297 10.248047 L 18.314453 10.248047 C 18.315753 10.24739 18.317059 10.246794 18.318359 10.246094 z M 8.4453125 11.605469 C 8.1211628 11.605355 7.8613584 11.862022 7.8613281 12.197266 C 7.8614415 12.463269 7.8540206 12.670752 7.8691406 12.742188 C 7.8842206 12.813238 7.805163 12.739185 7.890625 12.765625 C 8.3843031 12.907624 8.3686386 13.612494 7.8691406 13.732422 C 7.622842 13.793352 7.4793143 13.937178 7.3515625 14.242188 C 7.2774495 14.419145 7.2732555 14.692901 7.2421875 14.935547 L 9.640625 14.935547 C 9.6060007 14.697998 9.6022029 14.43394 9.5234375 14.257812 C 9.3864289 13.951633 9.2250967 13.79365 8.9765625 13.732422 C 8.4756013 13.616838 8.4542223 12.911331 8.9472656 12.765625 C 9.0374296 12.739545 8.9784689 12.792133 8.9980469 12.720703 C 9.0176249 12.649193 9.0271387 12.447848 9.0273438 12.197266 C 9.0273137 11.862173 8.7693654 11.60746 8.4453125 11.607422 L 8.4453125 11.605469 z M 13.154297 12.123047 L 18.314453 12.123047 C 18.980445 12.126347 18.980445 13.123683 18.314453 13.126953 L 13.154297 13.126953 C 12.488305 13.123653 12.488305 12.126317 13.154297 12.123047 z M 18.318359 14.003906 C 18.335279 14.003046 18.352231 14.003046 18.369141 14.003906 C 19.058325 14.018656 19.001126 15.062593 18.314453 15.001953 L 13.154297 15.001953 C 12.535116 14.987873 12.488975 14.082831 13.103516 14.005859 C 13.120436 14.004999 13.137377 14.004999 13.154297 14.005859 L 18.314453 14.005859 C 18.315753 14.005202 18.317059 14.004606 18.318359 14.003906 z " transform="matrix(0.26458334,0,0,0.26458334,0,290.64999)" id="rect1035"></path>
</g>
</svg>